<svg id="placement" xmlns="http://www.w3.org/2000/svg" xmlns:xlink="http://www.w3.org/1999/xlink" width="58.07" height="68.919" viewBox="0 0 58.07 68.919">
  <defs>
    <clipPath id="clip-path">
      <rect id="Rectangle_486" data-name="Rectangle 486" width="58.07" height="68.919" transform="translate(0 0)" fill="none"/>
    </clipPath>
  </defs>
  <g id="Group_223" data-name="Group 223" clip-path="url(#clip-path)">
    <path id="Path_211" data-name="Path 211" d="M41.5,21.242A12.451,12.451,0,1,0,29.048,33.693,12.45,12.45,0,0,0,41.5,21.242M29.048,12.613a3.85,3.85,0,1,1-3.85,3.85,3.848,3.848,0,0,1,3.85-3.85M23.125,26.249V23.288a2.979,2.979,0,0,1,2.046-2.827,1.153,1.153,0,0,1,1.023.161,5.049,5.049,0,0,0,2.854.889,4.975,4.975,0,0,0,2.853-.889,1.2,1.2,0,0,1,1.023-.161,2.958,2.958,0,0,1,2.06,2.813v2.962A2.961,2.961,0,0,1,32.023,29.2H26.1a2.945,2.945,0,0,1-2.975-2.948" transform="translate(-0.013 4)" fill="#04396d"/>
    <path id="Path_212" data-name="Path 212" d="M32.36,54.826c5.963-7.888,17.929-24.782,17.929-33.585a21.241,21.241,0,0,0-42.482,0c0,8.8,11.967,25.71,17.93,33.585A4.155,4.155,0,0,0,32.36,54.826Zm-19.8-33.585A16.489,16.489,0,1,1,29.048,37.73,16.481,16.481,0,0,1,12.559,21.241" transform="translate(-0.013 4)" fill="#04396d"/>
    <path id="Path_213" data-name="Path 213" d="M46.978,46.682a2.567,2.567,0,0,0-2.934,1.01l-.027.04a2.555,2.555,0,0,0,1.2,3.8c3.365,1.319,5.4,3.042,5.4,4.94,0,4.119-9.678,7.471-21.577,7.471S7.471,60.587,7.471,56.468c0-1.885,2.046-3.621,5.4-4.94a2.546,2.546,0,0,0,1.2-3.8c-.013-.014-.013-.027-.026-.04a2.562,2.562,0,0,0-2.935-1.01C4.334,48.957,0,52.5,0,56.468c0,6.878,13,12.451,29.035,12.451S58.07,63.346,58.07,56.468c.013-3.971-4.321-7.511-11.092-9.786" fill="#04396d"/>
  </g>
</svg>
