<svg id="Group_227" data-name="Group 227" xmlns="http://www.w3.org/2000/svg" xmlns:xlink="http://www.w3.org/1999/xlink" width="132.983" height="150.972" viewBox="0 0 132.983 150.972">
  <defs>
    <clipPath id="clip-path">
      <rect id="Rectangle_491" data-name="Rectangle 491" width="132.983" height="150.972" fill="none"/>
    </clipPath>
  </defs>
  <g id="Group_226" data-name="Group 226" clip-path="url(#clip-path)">
    <path id="Path_224" data-name="Path 224" d="M74.152,37.388c.761,12.972-5.862,23.462-14.337,32.86C54,76.7,47.955,83.019,40.982,88.344c-2.158,1.649-4.172,2.654-6.45.744-11.573-9.7-22.614-19.881-29.683-33.571-5.935-11.5-6.518-23.273-1.217-35.024C8.426,9.864,22.71.235,33.608.015,45.784-.231,56.28,2.433,64.684,11.369,71.38,18.49,74.866,27,74.152,37.388" fill="#e6e4e5"/>
    <path id="Path_225" data-name="Path 225" d="M89.385,61.728c14.079,1.392,23.253,11.753,24.309,24.879.222,2.761-.553,3.853-4.037,3.544-11.3-1-22.7-1.435-33.96.167-8.75,1.244-11.735-1.585-9.121-9.836.39-1.231.891-2.428,1.367-3.631,2.989-7.546,13.723-15.113,21.442-15.123" fill="#e6e4e5"/>
    <path id="Path_226" data-name="Path 226" d="M132.73,149.944c-.041-15.182-.175-30.364-.048-45.545.027-3.273-.968-4.131-4.175-4.122q-52.046.159-104.091,0c-3.253-.01-4.186.93-4.15,4.156.176,15.512.118,31.027.143,46.54H28.35a4.78,4.78,0,0,0,.528-.95l-.566,0c-.084-13.145-.14-26.289-.282-39.433-.023-2.151.849-2.916,2.917-2.909,10.732.036,21.464.014,32.2,0,1.42,0,2.782.093,2.585,2.021-1.036,10.193,6.36,12.5,13.8,14.775,1.1.334,2.213.592,3.321.885,3.871,2.448,2.389,6.292,1.8,9.348-.507,2.641-3.648,1.03-5.592,1.426a5.086,5.086,0,0,1-.988.01c-9.778,0-9.965,0-9.926,9.668a6.961,6.961,0,0,1-.3,2.3,9.535,9.535,0,0,0,1.2,2.86H76c1.248-5.278,5.035-6,9.655-5.55a38.874,38.874,0,0,0,7.332,0c4.637-.433,8.388.434,9.813,5.549h29.778q.159,0,.342-.3.2-.321-.186-.729m-12.172.321c-9.526-.165-9.687.022-9.632-9.5.02-3.463-1.039-4.789-4.478-4.425a58.919,58.919,0,0,1-5.931.044c-7.025.03-6.872.03-6.91-6.8-.016-2.918.88-4.152,3.828-4.372a22.917,22.917,0,0,0,10.625-3.7c3.641-2.323,6.429-5.425,5.8-10.051-.389-2.876.62-3.531,3.109-3.341a17.755,17.755,0,0,0,3.458-.01c3.086-.376,4.428.589,4.265,4-.275,5.748-.076,11.519-.076,17.28h.168c0,5.434-.16,10.875.06,16.3.132,3.264-.6,4.638-4.29,4.574" fill="#e6e4e5"/>
    <path id="Path_227" data-name="Path 227" d="M35.908,19.1c4.988.258,9.742,2.092,12.181,7.6,2.4,5.434,1.106,10.3-2.788,14.57-2.52,2.765-5.281,5.1-5.609,9.463-.244,3.24-3.7,1.688-5.783,1.929-2.333.268-2.6-1.334-2.589-3.192a12.1,12.1,0,0,1,3.56-8.43c1.352-1.444,2.862-2.747,4.14-4.25,2.384-2.8,3.552-5.911.046-8.558-3.077-2.324-6.171-1.769-8.7,1.271-.89,1.072-1.274,2.946-3.247,2.466C25.2,31.5,22.916,31.024,22,29.32c-.79-1.47.825-3.033,1.821-4.3A14.573,14.573,0,0,1,35.908,19.1" fill="#fff"/>
    <path id="Path_228" data-name="Path 228" d="M35.226,67.716c-3.316-.132-5.06-1.974-5.07-5.263a5,5,0,0,1,5.129-5.432c3.518-.13,5.567,2.321,5.487,5.6-.073,3.057-2.1,5.028-5.546,5.091" fill="#fff"/>
  </g>
</svg>
