<svg xmlns="http://www.w3.org/2000/svg" width="54.654" height="44.19" viewBox="0 0 54.654 44.19">
  <g id="total" transform="translate(-3 -5.49)">
    <path id="Path_214" data-name="Path 214" d="M38.2,14.467V25.314a2,2,0,0,1-2,2H27.4a6.742,6.742,0,0,1-6.748-6.748V19.218A6.742,6.742,0,0,1,27.4,12.47h8.808a2,2,0,0,1,2,2Z" transform="translate(19.452 7.693)" fill="#04396d"/>
    <path id="Path_215" data-name="Path 215" d="M46.85,17.009h8.24V13.036A7.558,7.558,0,0,0,47.522,5.49H10.568A7.558,7.558,0,0,0,3,13.036v18.87A12.6,12.6,0,1,1,20.777,49.676H47.522a7.558,7.558,0,0,0,7.568-7.546V38.156H46.85a9.912,9.912,0,0,1-9.9-9.9V26.91a9.912,9.912,0,0,1,9.9-9.9Z" transform="translate(0 0)" fill="#04396d"/>
    <path id="Path_216" data-name="Path 216" d="M12.459,17.512a9.459,9.459,0,1,0,9.459,9.459A9.46,9.46,0,0,0,12.459,17.512ZM15.7,28.863H14.353v1.345a1.892,1.892,0,0,1-3.784,0V28.863H9.224a1.892,1.892,0,1,1,0-3.784H10.57V23.732a1.892,1.892,0,0,1,3.784,0V25.08H15.7a1.892,1.892,0,1,1,0,3.784Z" transform="translate(0 13.249)" fill="#04396d"/>
  </g>
</svg>
